HIERARCHY
ROOT SimulationBone
{
	OFFSET 0.000000 0.000000 0.000000
	CHANNELS 6 Xposition Yposition Zposition Zrotation Yrotation Xrotation 
	JOINT Hips
	{
		OFFSET 0.000000 0.000000 0.000000
		CHANNELS 6 Xposition Yposition Zposition Zrotation Yrotation Xrotation 
		JOINT RightUpLeg
		{
			OFFSET 0.103461 1.857818 10.548512
			CHANNELS 3 Zrotation Yrotation Xrotation
			JOINT RightLeg
			{
				OFFSET 43.500000 -0.000019 0.000004
				CHANNELS 3 Zrotation Yrotation Xrotation
				JOINT RightFoot
				{
					OFFSET 42.372200 0.000011 0.000000
					CHANNELS 3 Zrotation Yrotation Xrotation
					JOINT RightToe
					{
						OFFSET 17.300009 0.000002 0.000004
						CHANNELS 3 Zrotation Yrotation Xrotation
						End Site
						{
							OFFSET 0.000000 0.000000 0.000000
						}
					}
				}
			}
		}
		JOINT LeftUpLeg
		{
			OFFSET 0.103461 1.857838 -10.548504
			CHANNELS 3 Zrotation Yrotation Xrotation
			JOINT LeftLeg
			{
				OFFSET 43.500042 -0.000038 0.000017
				CHANNELS 3 Zrotation Yrotation Xrotation
				JOINT LeftFoot
				{
					OFFSET 42.372253 -0.000008 0.000015
					CHANNELS 3 Zrotation Yrotation Xrotation
					JOINT LeftToe
					{
						OFFSET 17.299995 -0.000004 0.000004
						CHANNELS 3 Zrotation Yrotation Xrotation
						End Site
						{
							OFFSET 0.000000 0.000000 0.000000
						}
					}
				}
			}
		}
		JOINT Spine
		{
			OFFSET 6.901970 -2.603733 -0.000002
			CHANNELS 3 Zrotation Yrotation Xrotation
			JOINT Spine1
			{
				OFFSET 12.588097 0.000016 0.000005
				CHANNELS 3 Zrotation Yrotation Xrotation
				JOINT Spine2
				{
					OFFSET 12.343206 -0.000008 -0.000008
					CHANNELS 3 Zrotation Yrotation Xrotation
					JOINT Neck
					{
						OFFSET 25.832890 -0.000023 0.000008
						CHANNELS 3 Zrotation Yrotation Xrotation
						JOINT Head
						{
							OFFSET 11.766625 0.000019 -0.000006
							CHANNELS 3 Zrotation Yrotation Xrotation
							End Site
							{
								OFFSET 0.000000 0.000000 0.000000
							}
						}
					}
					JOINT RightShoulder
					{
						OFFSET 19.745903 -1.480385 6.000111
						CHANNELS 3 Zrotation Yrotation Xrotation
						JOINT RightArm
						{
							OFFSET 11.284122 -0.000021 -0.000025
							CHANNELS 3 Zrotation Yrotation Xrotation
							JOINT RightForeArm
							{
								OFFSET 33.000057 -0.000001 0.000032
								CHANNELS 3 Zrotation Yrotation Xrotation
								JOINT RightHand
								{
									OFFSET 25.200003 0.000023 0.000006
									CHANNELS 3 Zrotation Yrotation Xrotation
									End Site
									{
										OFFSET 0.000000 0.000000 0.000000
									}
								}
							}
						}
					}
					JOINT LeftShoulder
					{
						OFFSET 19.746098 -1.480366 -6.000072
						CHANNELS 3 Zrotation Yrotation Xrotation
						JOINT LeftArm
						{
							OFFSET 11.284136 -0.000004 -0.000006
							CHANNELS 3 Zrotation Yrotation Xrotation
							JOINT LeftForeArm
							{
								OFFSET 33.000092 0.000029 0.000002
								CHANNELS 3 Zrotation Yrotation Xrotation
								JOINT LeftHand
								{
									OFFSET 25.199776 0.000140 0.000420
									CHANNELS 3 Zrotation Yrotation Xrotation
									End Site
									{
										OFFSET 0.000000 0.000000 0.000000
									}
								}
							}
						}
					}
				}
			}
		}
	}
}
MOTION
Frames: 14
Frame Time: 0.016667
-309.099174 0.000000 352.558600 0.000000 29.884142 0.000000 0.869298 91.872188 -0.813732 95.217245 0.599808 179.820887 -178.974388 -7.392147 174.100191 -19.529161 -0.157038 -0.131756 83.843115 -1.128107 -5.908865 21.454557 0.003103 0.000018 -177.930352 -0.909343 -172.991907 -10.962208 3.114762 6.040197 81.069863 -4.557568 -1.366148 21.454553 -0.003091 0.000000 7.866138 1.332553 -0.029283 5.721044 2.664958 0.007023 5.402569 2.664809 -0.009090 32.488874 -3.001028 12.374766 -4.913578 -10.950003 16.439730 167.995926 -74.189998 10.893267 1.319139 57.657806 38.355688 -39.631778 -18.465267 1.701643 6.481808 -0.325293 22.641226 -158.179052 81.352814 23.678313 -16.524685 -59.415572 -37.005507 -30.871689 16.467060 -1.340911 -0.840525 11.780877 -6.327383 
-309.134008 0.000000 352.650351 0.000000 30.027793 0.000000 0.863474 91.819138 -0.778310 95.241418 0.679405 179.795975 -179.376040 -7.537799 174.148281 -20.216049 -0.083140 -0.075062 84.037834 -1.166081 -5.938650 21.454557 0.003106 0.000018 -178.032938 -1.020903 -173.010126 -11.134804 3.162665 6.116924 81.161648 -4.622890 -1.432085 21.454553 -0.003091 0.000000 7.893539 1.361219 -0.025076 5.776052 2.722027 0.017497 5.457561 2.721942 0.001040 32.424833 -3.068853 12.199587 -4.986378 -10.803726 16.230418 167.824591 -74.209817 11.067845 1.505363 57.755388 38.690859 -39.351068 -18.358065 1.687234 6.543071 -0.226849 22.612957 -158.447067 81.381252 23.406196 -16.464148 -59.363815 -37.194276 -30.311842 16.308158 -1.319620 -0.879134 10.970390 -6.506803 
-309.175109 0.000000 352.735392 0.000000 30.165838 0.000000 0.851274 91.755365 -0.736615 95.258066 0.782926 179.784285 -179.851065 -7.704533 174.200022 -21.016392 0.002164 -0.025804 84.274742 -1.196763 -5.968973 21.454557 0.003107 0.000018 -178.163564 -1.150534 -173.027854 -11.339915 3.218001 6.197248 81.268208 -4.690384 -1.499535 21.454552 -0.003092 -0.000000 7.921408 1.395559 -0.022518 5.831990 2.790513 0.025000 5.513473 2.790475 0.008129 32.354532 -3.126839 12.031266 -5.052711 -10.668802 16.028500 167.644944 -74.231912 11.250839 1.683232 57.850360 39.013144 -39.084690 -18.258609 1.673752 6.604389 -0.131012 22.611272 -158.661153 81.410320 23.188786 -16.355173 -59.289091 -37.428193 -29.881329 16.156435 -1.301527 -0.917879 10.207279 -6.705291 
-309.221638 0.000000 352.814513 0.000000 30.296961 0.000000 0.832673 91.679810 -0.691246 95.269235 0.913447 179.787542 179.595139 -7.898896 174.250447 -21.945517 0.099999 0.029407 84.552468 -1.229233 -5.997231 21.454558 0.003107 0.000018 -178.320953 -1.302199 -173.054632 -11.578450 3.279041 6.287305 81.390582 -4.763361 -1.564743 21.454553 -0.003093 0.000000 7.950560 1.436716 -0.021360 5.890493 2.872689 0.030115 5.571947 2.872681 0.012747 32.272100 -3.174199 11.872911 -5.109698 -10.543025 15.836041 167.471292 -74.252342 11.427761 1.854630 57.939154 39.314749 -38.853083 -18.173033 1.662145 6.667907 -0.024261 22.652150 -158.805898 81.439835 23.041632 -16.205608 -59.193880 -37.695396 -29.573929 16.023352 -1.287074 -0.959891 9.494614 -6.865966 
-309.272943 0.000000 352.888124 0.000000 30.419797 0.000000 0.808310 91.592124 -0.644725 95.277727 1.072024 179.806772 178.960937 -8.123617 174.295613 -23.013372 0.213758 0.102260 84.864223 -1.272090 -6.022571 21.454559 0.003108 0.000018 -178.501280 -1.477345 -173.099868 -11.848503 3.344902 6.392690 81.528841 -4.844846 -1.624299 21.454553 -0.003092 0.000000 7.981905 1.485352 -0.021386 5.953384 2.969869 0.033343 5.634814 2.969877 0.015386 32.172911 -3.210369 11.726881 -5.156825 -10.423894 15.654613 167.319609 -74.266340 11.582447 2.020483 58.017339 39.587951 -38.674736 -18.107175 1.653237 6.734083 0.105825 22.747081 -158.872115 81.468079 22.974008 -16.026465 -59.080012 -37.978773 -29.378516 15.919358 -1.276617 -1.014767 8.830428 -6.951738 
-309.328682 0.000000 352.956099 0.000000 30.532731 0.000000 0.780072 91.492828 -0.599428 95.286911 1.256219 179.841928 178.254004 -8.367599 174.336822 -24.210770 0.354262 0.184981 85.194820 -1.322606 -6.054097 21.454560 0.003106 0.000017 -178.697119 -1.670391 -173.169802 -12.144375 3.421029 6.515927 81.682218 -4.936465 -1.678397 21.454553 -0.003091 0.000000 8.016100 1.541063 -0.022462 6.021987 3.081236 0.034980 5.703389 3.081250 0.016348 32.058178 -3.234245 11.593210 -5.200188 -10.310807 15.484785 167.198986 -74.267600 11.705817 2.180393 58.079699 39.828038 -38.555689 -18.064650 1.647391 6.795487 0.256535 22.886854 -158.861796 81.488103 22.984092 -15.835557 -58.945323 -38.252767 -29.277509 15.846286 -1.270099 -1.094599 8.214885 -6.975068 
-309.388780 0.000000 353.017916 0.000000 30.633877 0.000000 0.750303 91.383880 -0.557093 95.300178 1.460295 179.891924 177.487007 -8.612418 174.378741 -25.518933 0.533914 0.262710 85.525303 -1.372380 -6.096056 21.454558 0.003100 0.000016 -178.899514 -1.873259 -173.268736 -12.457568 3.511245 6.657641 81.848008 -5.038625 -1.727111 21.454551 -0.003092 -0.000000 8.053636 1.602591 -0.024539 6.097286 3.204269 0.035097 5.778647 3.204282 0.015716 31.931997 -3.245193 11.471410 -5.247909 -10.203632 15.327124 167.115965 -74.251081 11.791358 2.333108 58.122951 40.030908 -38.495933 -18.047038 1.644710 6.842906 0.417450 23.054448 -158.782803 81.492799 23.064115 -15.653000 -58.787658 -38.493071 -29.250779 15.803228 -1.267176 -1.208240 7.650117 -6.958387 
-309.453264 0.000000 353.072799 0.000000 30.721082 0.000000 0.721725 91.272133 -0.518110 95.320298 1.668823 179.951961 176.683211 -8.824099 174.434849 -26.899659 0.765022 0.313058 85.829966 -1.402120 -6.123469 21.454557 0.003099 0.000016 -179.097095 -2.074799 -173.396209 -12.772323 3.606488 6.814159 82.016569 -5.148279 -1.766383 21.454550 -0.003093 0.000000 8.094591 1.666324 -0.027831 6.179417 3.331772 0.033039 5.860729 3.331772 0.012885 31.804129 -3.245038 11.361300 -5.309619 -10.102097 15.183271 167.073502 -74.218341 11.836024 2.475601 58.152304 40.192213 -38.483641 -18.050021 1.644584 6.867956 0.562246 23.222489 -158.654459 81.479736 23.194450 -15.501829 -58.608444 -38.688332 -29.274285 15.786999 -1.266242 -1.351346 7.144020 -6.915430 
-309.521886 0.000000 353.119879 0.000000 30.792062 0.000000 0.696741 91.164787 -0.482691 95.349845 1.865828 -179.984040 175.866154 -8.970588 174.519973 -28.315063 1.053297 0.312079 86.080024 -1.393263 -6.117263 21.454555 0.003108 0.000017 -179.278823 -2.264209 -173.550754 -13.073039 3.695582 6.980437 82.178269 -5.261397 -1.791885 21.454552 -0.003093 0.000000 8.138925 1.728426 -0.032372 6.268280 3.456087 0.028531 5.949546 3.456059 0.007630 31.685110 -3.236331 11.262447 -5.392410 -10.006228 15.054484 167.070941 -74.173023 11.840384 2.604553 58.175419 40.308912 -38.503546 -18.067937 1.646258 6.864744 0.662585 23.361270 -158.500913 81.448638 23.350547 -15.402522 -58.411431 -38.829135 -29.323744 15.793592 -1.265757 -1.513407 6.702287 -6.854297 
-309.594031 0.000000 353.158398 0.000000 30.844812 0.000000 0.676958 91.065552 -0.451461 95.391188 2.042886 -179.924096 175.049484 -9.044005 174.648852 -29.747320 1.381074 0.238536 86.241301 -1.339877 -6.111914 21.454555 0.003117 0.000019 -179.437252 -2.435302 -173.731271 -13.351852 3.772114 7.149745 82.330560 -5.373332 -1.802522 21.454555 -0.003093 0.000000 8.186555 1.786507 -0.037187 6.363722 3.572372 0.023594 6.044945 3.572312 0.001995 31.582865 -3.222187 11.173085 -5.491727 -9.917278 14.939519 167.097613 -74.120553 11.815135 2.716746 58.201222 40.382973 -38.538385 -18.095673 1.648960 6.837375 0.697737 23.442319 -158.352441 81.403136 23.501735 -15.363482 -58.205914 -38.899719 -29.377746 15.818025 -1.265519 -1.673004 6.316098 -6.768635 
-309.668598 0.000000 353.188167 0.000000 30.877774 0.000000 0.663380 90.976801 -0.425551 95.445843 2.194936 -179.875884 174.246917 -9.045070 174.831031 -31.178477 1.723364 0.076120 86.286627 -1.239058 -6.145669 21.454555 0.003115 0.000019 -179.567436 -2.584348 -173.937304 -13.604102 3.831485 7.316077 82.472662 -5.480008 -1.797821 21.454555 -0.003093 -0.000001 8.237204 1.838872 -0.041094 6.465212 3.677169 0.020552 6.146398 3.677087 -0.001682 31.503480 -3.205934 11.091152 -5.598900 -9.836289 14.836250 167.142470 -74.066456 11.771349 2.809552 58.237564 40.418227 -38.572768 -18.128796 1.651999 6.793522 0.656436 23.444731 -158.235971 81.348138 23.620717 -15.388731 -58.002043 -38.886415 -29.417430 15.854454 -1.265613 -1.807626 5.975552 -6.646638 
-309.744436 0.000000 353.208890 0.000000 30.890036 0.000000 0.655532 90.899063 -0.404978 95.512287 2.322734 -179.842923 173.482024 -8.985903 175.055385 -32.569094 2.051629 -0.177191 86.222354 -1.088494 -6.217720 21.454557 0.003108 0.000018 -179.670694 -2.713000 -174.170534 -13.830115 3.871855 7.477947 82.603808 -5.580269 -1.776632 21.454555 -0.003093 -0.000001 8.289860 1.885174 -0.043072 6.570757 3.769757 0.020663 6.251907 3.769672 -0.002136 31.448249 -3.191202 11.014694 -5.700421 -9.762327 14.741432 167.202620 -74.014897 11.711786 2.882375 58.286770 40.420727 -38.600803 -18.165059 1.655080 6.744938 0.557994 23.376343 -158.161346 81.289606 23.697383 -15.478065 -57.808028 -38.789149 -29.431257 15.894588 -1.266000 -1.900910 5.680924 -6.468508 
-309.821518 0.000000 353.218049 0.000000 30.881254 0.000000 0.652171 90.832275 -0.386785 95.587660 2.428708 -179.826940 172.776039 -8.880732 175.304556 -33.881425 2.341018 -0.514572 86.069117 -0.888126 -6.313894 21.454559 0.003106 0.000017 -179.751185 -2.824004 -174.432016 -14.032876 3.893034 7.634894 82.724334 -5.673540 -1.737318 21.454553 -0.003091 -0.000001 8.343187 1.925475 -0.042551 6.677706 3.850245 0.024559 6.358822 3.850180 0.001268 31.416869 -3.181135 10.942116 -5.783044 -9.693935 14.651980 167.276391 -73.969284 11.638008 2.936285 58.348885 40.397494 -38.620637 -18.203345 1.658080 6.703170 0.430287 23.253556 -158.132827 81.232508 23.727276 -15.627515 -57.630132 -38.611439 -29.414347 15.929331 -1.266588 -1.942299 5.438901 -6.223929 
-309.900074 0.000000 353.212265 0.000000 30.851346 0.000000 0.650864 90.775841 -0.366228 95.666866 2.516045 -179.825264 172.131204 -8.739100 175.555492 -35.106905 2.583579 -0.912662 85.871357 -0.645667 -6.405036 21.454560 0.003107 0.000017 -179.818185 -2.919094 -174.718315 -14.221040 3.898642 7.786093 82.838978 -5.758649 -1.676988 21.454553 -0.003090 0.000000 8.395299 1.960121 -0.040588 6.782260 3.919333 0.031453 6.463347 3.919309 0.007739 31.407391 -3.176598 10.873151 -5.839369 -9.629630 14.566480 167.358717 -73.931377 11.555177 2.977120 58.420423 40.357370 -38.637068 -18.244878 1.661202 6.674462 0.304802 23.098467 -158.150486 81.176805 23.710319 -15.821623 -57.469100 -38.358212 -29.381147 15.948838 -1.267288 -1.937821 5.271891 -5.948283 
